<svg width="100" height="100" viewBox="0 0 100 100" xmlns="http://www.w3.org/2000/svg"><title>FDFC3393-EA5B-4B5E-AAC3-1C7EB5B22475</title><g fill="#B01C33" fill-rule="evenodd"><path d="M12.489 49.501c0-20.408 16.602-37.012 37.01-37.012 20.409 0 37.012 16.603 37.012 37.01 0 20.409-16.603 37.013-37.012 37.013-20.408 0-37.01-16.603-37.01-37.01m-.489 0C12 70.177 28.822 87 49.499 87 70.177 87 87 70.178 87 49.5S70.177 12 49.499 12C28.822 12 12 28.823 12 49.501"/><path d="M.49 50C.49 22.7 22.7.49 49.998.49 77.3.49 99.51 22.7 99.51 50c0 27.3-22.21 49.51-49.512 49.51C22.7 99.51.49 77.3.49 50M0 50c0 27.57 22.429 50 49.998 50C77.57 100 100 77.57 100 50S77.57 0 49.998 0C22.428 0 0 22.43 0 50"/><path d="M2.17 49.5c0-26.097 21.231-47.33 47.328-47.33 26.099 0 47.331 21.233 47.331 47.33 0 26.097-21.232 47.33-47.33 47.33S2.17 75.596 2.17 49.5M1 49.5C1 76.243 22.756 98 49.498 98 76.242 98 98 76.243 98 49.5S76.242 1 49.498 1C22.756 1 1 22.757 1 49.5"/><path d="M55.039 64.946l2.546.203 1.883.053-.007-.776-2.233-.076-3.4-.315c-1.034-.133-1.997-.024-2.038-.02l-.13.015v.77l.164-.02c.009-.001.862-.096 3.215.166zm0 1.447l2.546.203 1.883.053-.007-.775-2.234-.075-3.4-.314c-1.033-.134-1.996-.026-2.036-.023l-.13.015v.772l.163-.02c.009 0 .862-.096 3.215.164zm0-7.99l2.547.204 1.882.053-.007-.778-2.234-.072-3.4-.315a9.23 9.23 0 0 0-2.037-.022l-.13.014v.77l.164-.019c.009 0 .862-.096 3.215.164zm0-1.45l2.546.206 1.883.053-.007-.779-2.231-.076-3.402-.311a9.302 9.302 0 0 0-2.038-.02l-.13.013v.775l.164-.02c.01-.002.862-.1 3.215.159zm0 5.432l2.546.203 1.883.058-.007-.78-2.232-.077-3.401-.312a9.38 9.38 0 0 0-2.037-.024l-.13.014v.776l.163-.02c.009-.002.862-.098 3.215.162zm-5.04 22.444C30.795 84.829 15.17 69.205 15.17 50c0-19.204 15.625-34.829 34.83-34.829S84.83 30.796 84.83 50c0 19.205-15.625 34.829-34.83 34.829zM50 14C30.15 14 14 30.15 14 50c0 19.851 16.149 36 36 36 19.85 0 36-16.149 36-36 0-19.85-16.15-36-36-36zm.007 69.547c-2.217-1.01-22.573-10.731-22.573-26.906l.001-30.907 45.096-.002.002 31.482c0 15.477-20.31 25.309-22.526 26.333zM26.264 24.563v32.078c0 17.79 23.279 27.985 23.513 28.086l.234.1.232-.102c.958-.418 23.459-10.458 23.459-27.511L73.7 24.562l-47.436.001zm36.99 30.281h1.453v-1.451h-1.452v1.451zm0 6.495h1.453v-1.453h-1.452v1.453zm0 6.492h1.453v-1.453h-1.452v1.453zM50.406 81.898V71.3c.696-.122 1.109-.521 1.298-.878h11.552v-1.811h2.232v-3.014h-2.232v-3.48h2.232v-3.013h-2.232v-3.48h2.232v-3.013h-2.232v-1.774h-1.752v-.715l-1.368-.007-2.332-.02-2.562-.212-1.732-.176c-1.245-.137-2.35.09-2.396.098-.3.07-.523.165-.705.27v-3.89h20.819V56.96c0 14.231-17.779 23.463-20.822 24.938zm-.397-11.323c-.846 0-1.01-.565-1.025-.63l-.073-.296-11.326-.007V51.618h.991l-.003 17.315 3.005.032 3.448-.211 3.009-.162c.664.001.916.312 1.16.612.194.24.414.512.801.512.38 0 .612-.265.816-.499.268-.307.543-.624 1.232-.625l3.01.162 3.446.211 3.023-.032-.016-.386-.003-16.929h.971v18.024H51.16l-.082.29c-.02.066-.208.642-1.07.643zM35.34 67.831h1.453v-1.453H35.34v1.453zm0-6.493h1.453v-1.453H35.34v1.453zm0-6.494h1.453v-1.451H35.34v1.451zm14.288-3.824v17.493c-.289-.323-.745-.7-1.593-.701l-3.08.166-3.395.207-2.207-.023.004-17.262.588-.003 2.348-.02 2.627-.218 1.723-.174c1.125-.125 2.153.083 2.162.085.532.125.741.33.823.45zm-.004 30.889c-3.003-1.428-20.958-10.587-20.958-25.485V46.185h20.962v3.864a2.596 2.596 0 0 0-.654-.24 8.452 8.452 0 0 0-2.408-.1l-1.73.175-2.56.212-2.33.02-1.375.007.005.388v.327h-1.772v1.774h-2.245v3.012h2.245v3.481h-2.245v3.014h2.245v3.479h-2.245v3.014h2.245v1.811h11.538c.182.36.586.76 1.282.88v10.606zm.784-30.82c.036-.083.204-.364.874-.522 0 0 1.025-.207 2.149-.083l1.726.175 2.63.218 2.348.02.587.003.004 17.262-2.21.023-3.392-.207-3.082-.166c-.856.002-1.323.363-1.634.69V51.089zM28.666 27.123h42.559l.001 17.892h-42.56V27.123zm-.488-.487v29.788c0 16.494 21.516 26.06 21.733 26.155l.1.043.097-.044c.215-.097 21.607-9.817 21.607-25.618l-.002-30.326-43.535.002zm26.86 34.299l2.548.204 1.882.054-.007-.778-2.232-.075-3.401-.31a9.282 9.282 0 0 0-2.037-.024l-.13.015v.771l.163-.02c.009-.001.862-.096 3.215.163zm0-7.97l2.548.204 1.882.055-.007-.778-2.232-.075-3.4-.315a9.423 9.423 0 0 0-2.038-.02l-.13.015v.772l.163-.02c.009-.001.86-.095 3.215.161zm0 1.448l2.548.205 1.882.054-.007-.777-2.233-.076-3.4-.312a9.39 9.39 0 0 0-2.037-.021l-.13.014v.773l.163-.02c.009-.001.862-.098 3.215.16zm-8.847 3.083l-1.783.165-1.61.15-2.23.07-.006.779 1.88-.053 2.545-.204c2.357-.26 3.203-.166 3.212-.165l.164.02v-.771l-.13-.014a9.218 9.218 0 0 0-2.042.023zm0-1.45l-.939.088-2.45.223-2.234.076-.006.78 1.88-.054 2.545-.205c2.357-.26 3.203-.162 3.211-.16l.165.02v-.775l-.13-.013a9.284 9.284 0 0 0-2.042.02zm0-3.989l-1.194.112-2.197.202-2.233.075-.005.778 1.881-.055 2.544-.204c2.357-.257 3.203-.163 3.212-.162l.164.02v-.772l-.13-.015a9.409 9.409 0 0 0-2.041.021zm0 1.45l-1.004.093-2.387.22-2.233.075-.005.777 1.881-.054 2.544-.204c2.357-.259 3.203-.162 3.212-.162l.164.02V53.5l-.13-.014a9.375 9.375 0 0 0-2.041.022zm0 6.524l-1.289.119-2.1.19-2.234.075-.006.778 1.881-.054 2.544-.203c2.357-.26 3.203-.165 3.212-.164l.164.02v-.771l-.13-.015a9.282 9.282 0 0 0-2.042.025zm0 5.455l-1.57.145-1.82.168-2.234.075-.005.775 1.88-.053 2.545-.202c2.357-.26 3.203-.166 3.212-.165l.164.02v-.772l-.13-.015c-.04-.003-.998-.11-2.042.024zm0-1.45l-1.033.096-2.358.218-2.233.076-.005.776 1.88-.053 2.545-.202c2.357-.263 3.203-.168 3.212-.167l.164.02v-.77l-.13-.014c-.04-.005-.998-.114-2.041.02zm0-2.544l-.869.082-2.522.232-2.233.075-.005.777 1.88-.054 2.545-.202c2.357-.262 3.203-.165 3.212-.164l.164.02v-.77l-.13-.015a9.343 9.343 0 0 0-2.041.02z"/><path d="M31.86 88.419c-.282.542-.703.916-1.22 1.082a2.018 2.018 0 0 1-1.528-.137s-.264-.134-.463-.237l1.93-3.727.462.238c.474.243.838.666.995 1.159.06.19.092.385.092.584 0 .343-.091.693-.269 1.038zm-.596-3.213l-.895-.46-2.376 4.59.896.46c.589.303 1.28.363 1.897.167.645-.206 1.165-.662 1.506-1.322.342-.661.413-1.35.208-1.992a2.505 2.505 0 0 0-1.236-1.443zm1.867 3.866c-.98 1.896-2.534 2.266-4.748 1.13l-1.446-.742 2.92-5.643 1.442.742c1.529.786 2.288 1.734 2.288 2.87 0 .51-.153 1.056-.456 1.643zm-1.609-4.945l-1.875-.965-3.367 6.507 1.88.965c2.47 1.268 4.288.817 5.404-1.34 1.116-2.157.428-3.896-2.042-5.167zm27.295 6.09l1.059 1.674-1.277.294.218-1.968zm-.382-.88l-.395 3.475 2.613-.602-1.875-2.962-.343.089zm-8.84 3.282c-.171 2.13-1.461 3.067-3.944 2.869l-1.62-.13c.036-.434.476-5.894.51-6.328l1.622.13c2.317.186 3.45 1.186 3.45 3.051 0 .132-.007.268-.018.408zm-3.394-3.943l-2.106-.167-.588 7.294 2.104.17c2.772.22 4.275-.895 4.47-3.315.194-2.42-1.11-3.76-3.88-3.982zm1.97 3.829c-.05.61-.294 1.118-.71 1.47a2.02 2.02 0 0 1-1.46.46l-.518-.042.337-4.18.518.041c.942.076 1.842.796 1.842 2.036 0 .07-.004.142-.01.215zm-1.794-2.735l-1.003-.078-.415 5.146 1.003.08a2.512 2.512 0 0 0 1.815-.573c.515-.437.82-1.06.88-1.8.134-1.672-1.075-2.678-2.28-2.775zm-5.432-1.468l-.166.568-2.555-.742-.612 2.081 2.34.68-.166.57c-.378-.112-2.339-.683-2.339-.683l-.674 2.307 2.571.75-.166.568-3.421-.997 1.786-6.092 3.402.99zm-5.792 5.431l4.355 1.27.44-1.5s-2.186-.636-2.572-.75l.403-1.374 2.34.682.436-1.501-2.339-.68.338-1.15 2.554.743.441-1.5-4.337-1.264-2.06 7.024zM5.115 60.027l6.154-1.623.847 3.19c-.2.053-.372.1-.573.152l-.622-2.34-2.1.555.59 2.226c-.201.053-.375.098-.575.152l-.59-2.227-2.905.766-.226-.851zm3.374 2.905l1.516-.399-.59-2.226 1.16-.307.622 2.34 1.514-.402-1.096-4.128-7.096 1.872.476 1.79s2.508-.661 2.905-.767l.589 2.227zm4.943 5.344c-.18.513-.669.994-1.341 1.316-.703.339-1.398.432-1.908.255-.365-.127-.647-.392-.837-.786-.192-.394-.225-.779-.098-1.142.178-.509.684-.995 1.388-1.333.673-.324 1.355-.408 1.871-.227.37.127.652.39.838.776.188.387.217.77.087 1.14zm.352-1.353c-.245-.506-.621-.85-1.116-1.023-.638-.222-1.456-.131-2.244.248-.832.4-1.412.973-1.635 1.61-.07.2-.104.403-.104.607 0 .298.074.602.222.908.248.513.624.86 1.116 1.033.64.222 1.45.123 2.28-.276.787-.378 1.367-.96 1.589-1.595.174-.495.137-1.003-.108-1.512zm3.323 11.634c-.6.471-1.176.678-1.71.614-.582-.069-1.156-.46-1.709-1.161-.493-.623-.74-1.205-.74-1.734 0-.065.003-.129.01-.193.064-.534.402-1.044 1.004-1.516l3.25-2.55.544.693-2.918 2.289c-.648.508-.992 1.001-1.053 1.508a1.31 1.31 0 0 0-.01.158c0 .333.127.662.378.98.682.862 1.604.848 2.742-.04l2.918-2.289.545.693-3.25 2.548zm2.787-3.923l-3.3 2.588c-1.18.924-1.72.55-2.058.122-.21-.267-.299-.522-.267-.78.044-.367.337-.765.87-1.183l3.3-2.588-1.146-1.456-3.633 2.848c-.706.555-1.105 1.174-1.185 1.84-.085.712.194 1.48.83 2.285.637.806 1.32 1.258 2.033 1.343.668.08 1.364-.16 2.07-.714l3.633-2.848-1.147-1.457zm-9.827-3.483c-.716-.248-1.302-.809-1.694-1.622-.846-1.744-.232-3.323 1.64-4.227.939-.452 1.838-.55 2.603-.284.72.25 1.292.805 1.702 1.65.244.503.368 1.005.368 1.484 0 .297-.05.586-.145.862-.27.772-.903 1.415-1.83 1.862-.944.454-1.859.55-2.644.275zm4.934-1.977c.294-.84.21-1.78-.244-2.719-.462-.95-1.146-1.606-1.981-1.896-.888-.309-1.917-.203-2.974.306-2.115 1.02-2.83 2.887-1.868 4.875.45.93 1.132 1.577 1.972 1.87.91.317 1.953.214 3.016-.297 1.045-.503 1.765-1.242 2.079-2.14zm7.664 17.472c-.244-.202-.823-.683-.984-.814l1.261-5.603-.316-.25-3.273 3.925-.634-.524 4.068-4.885.992.822-1.269 5.588.314.27s2.993-3.598 3.276-3.936l.634.524c-.28.334-3.79 4.549-4.069 4.883zm3.37-6.09l-2.804 3.367 1.089-4.789-1.596-1.322-4.691 5.63 1.384 1.145s1.99-2.39 2.808-3.37c-.296 1.303-1.085 4.797-1.085 4.797l1.589 1.315 4.691-5.63-1.385-1.143zm44.924 8.02a2.01 2.01 0 0 1-.98 1.176l-.457.245c-.195-.364-1.79-3.333-1.984-3.697l.457-.243a2.014 2.014 0 0 1 1.522-.161c.522.157.952.524 1.24 1.063.19.35.285.71.285 1.061 0 .189-.028.375-.083.556zm-1.3-3.146a2.507 2.507 0 0 0-1.894.199l-.887.473 2.445 4.553.887-.474a2.507 2.507 0 0 0 1.216-1.465c.195-.645.112-1.332-.24-1.986-.351-.655-.88-1.104-1.528-1.3zm17.644-9.11c-.472.654-1.446 1.621-2.67.744-.52-.374-.69-.919-.549-1.765l.015-.144-.243-.198-.15.08c-.594.347-1.21.35-1.689.006-1.145-.823-.482-2.003-.143-2.474.612-.844 1.592-1.435 2.404-.852.418.3.804.865.635 1.551l-.043.175.283.171.136-.062c.83-.46 1.298-.332 1.825.045 1.234.887.649 2.087.19 2.724zm.093-3.117c-1.049-.77-1.955-.244-1.955-.268 0-.713-.425-1.286-.879-1.613-1.084-.778-2.33-.075-3.082.965-.872 1.205-.774 2.412.252 3.15.975.646 1.836.183 1.833.21a1.29 1.29 0 0 0-.014.167c0 .719.264 1.26.8 1.645 1.125.807 2.378.488 3.348-.855.947-1.314.834-2.586-.303-3.401zm-.92 2.523c-.23.316-.687.483-1.056.217-.24-.17-.35-.394-.35-.729 0-.081.014-.198.027-.292.52-.354.93-.42 1.263-.18.402.286.313.71.115.984zm-1.75-1.143l-.08.057-.016.097a2.576 2.576 0 0 0-.047.472c0 .39.113.815.552 1.13.551.395 1.314.25 1.735-.33.42-.583.327-1.266-.225-1.662-.532-.382-1.178-.303-1.92.236zm-.81-.804c-.447.284-.812.431-1.1.224-.372-.266-.195-.722-.031-.949a.592.592 0 0 1 .381-.258.64.64 0 0 1 .47.135l.002.001c.194.139.297.44.297.705 0 .05-.011.096-.018.142zm.005-1.242l.001.001c-.26-.187-.556-.266-.833-.221a1.069 1.069 0 0 0-.7.454c-.36.5-.426 1.22.142 1.627.644.461 1.386-.03 1.744-.266l.074-.05.025-.086c.03-.108.047-.23.047-.357 0-.404-.16-.858-.5-1.102zm6.635-3.665a.603.603 0 0 1-.348.333c-.218.076-.515.034-.834-.12-.368-.175-.614-.397-.694-.627a.538.538 0 0 1 .038-.434.546.546 0 0 1 .32-.3c.233-.083.566-.034.916.133.147.07.871.454.602 1.015zm-.392-1.453c-.471-.225-.929-.28-1.289-.153-.263.094-.47.283-.598.548a1.098 1.098 0 0 0-.114.477c0 .11.02.22.057.328.159.45.6.74.942.904.438.21.866.26 1.207.14.273-.095.49-.296.627-.581.294-.614-.04-1.283-.832-1.663zm-6.808 13.529l-.615.631-3.985-3.867-.153 1.741-.635-.075.21-2.225c.081-.082.42-.428.617-.631l4.56 4.426zm-5.646-4.01l-.27 2.867 1.603.19.108-1.221c.6.58 3.6 3.492 3.6 3.492l1.293-1.327-5.258-5.104-1.076 1.103zM61.914 94.136l-.924-1.395-3.028.695-.229 1.66-.874.199.984-6.739c.227-.05.956-.219 1.182-.271.17.25 3.5 5.11 3.854 5.63l-.965.221zm-4.505-5.977l-1.133 7.768 1.893-.433.229-1.66 2.371-.544.924 1.394 1.991-.456-4.444-6.49-1.83.421zm34.067-18.846c-.612 1.272-1.742 1.46-3.556.593-.996-.478-2.445-1.415-2.445-2.82 0-.329.078-.683.262-1.064.185-.403.623-.956.667-.956.014.015.315.205.503.335-.215.21-.433.457-.607.816-.121.253-.18.505-.18.753 0 .735.52 1.428 1.495 1.943l.085.045.397-.144-.13-.246c-.244-.42-.256-.81-.04-1.258.483-1 1.367-1.284 2.424-.778.914.437 1.85 1.275 1.125 2.781zm-.913-3.218c-1.298-.621-2.475-.237-3.075 1.005-.133.278-.2.549-.2.816 0 .085.058.168.071.252-.372-.279-.751-.68-.751-1.202 0-.17.04-.348.13-.538.195-.402.456-.66.707-.877l.238-.206-1.348-.929-.144.143c-.37.365-.663.775-.893 1.254-.84 1.742.04 3.395 2.411 4.531 2.056.982 3.472.707 4.206-.82.691-1.437.198-2.687-1.352-3.429zm3.708-4.238s-.285.9-.479 1.257c-.188-.054-.408-.11-.665-.184.196-.275.406-.601.528-1.062a2.28 2.28 0 0 0 .077-.585c0-.612-.269-1.218-1.05-1.422-.37-.097-.71-.058-1.008.116-.384.224-.68.674-.834 1.267 0 .001-.143.567-.143.967l-3.002-.842.872-3.32.517.135-.665 2.535s1.927.54 1.927.536c0-.362.105-.868.105-.868.089-.335.318-.946.87-1.269.411-.24.931-.28 1.546-.118.555.144.985.454 1.245.898.185.314.278.686.278 1.1 0 .27-.04.558-.12.859zm-1.28-3.327c-.745-.195-1.389-.138-1.914.169-.707.412-.99 1.157-1.097 1.565l-.055.374-.915-.256.669-2.546-1.46-.379-1.116 4.251s4.034 1.137 4.099 1.137c-.108-.726.108-1.478.108-1.478.122-.469.34-.813.61-.97.185-.11.394-.13.638-.067.866.226.699 1.14.627 1.415-.132.495-.408.863-.608 1.13l-.248.316 1.706.504s.158-.266.346-.695c.358-.808.8-2.178.151-3.348-.327-.556-.86-.944-1.541-1.122zM72.403 88.658c-.245.812-.968 1.54-2.145 2.169l-1.433.765c-.205-.384-2.8-5.213-3.006-5.597.325-.172 1.433-.764 1.433-.764 1.18-.63 2.189-.824 3.001-.579.702.211 1.295.762 1.763 1.636.324.602.487 1.169.487 1.691 0 .235-.034.462-.1.68zm-2.008-4.47c-.955-.289-2.056-.087-3.373.615l-1.862.994 3.466 6.451 1.86-.992c1.316-.702 2.095-1.505 2.384-2.457.251-.826.109-1.75-.425-2.74-.53-.992-1.221-1.622-2.05-1.872zm-5.325 8.886l-.312-.829c.242-.09.585-.218.827-.31.092.243.22.588.313.83l-.828.31zm-.938-1.114l.653 1.74 1.739-.651-.654-1.737-1.738.648zm11.314-4.224l-.509-.726.723-.505c.148.212.36.514.51.725l-.724.506zm-1.187-.846l1.068 1.521 1.52-1.063-1.067-1.52-1.52 1.062zM4.5 45.808c.021-.335.123-.824.304-1.27.181.026.348.063.6.102a3.173 3.173 0 0 0-.315 1.235 2.63 2.63 0 0 0-.006.19c0 .619.202 1.174.59 1.614.465.527 1.167.847 1.974.898 1.604.103 2.749-.856 2.848-2.385a4.09 4.09 0 0 0-.117-1.282l.61.008c.1.5.1 1.312.1 1.312-.143 2.223-1.384 3.424-3.402 3.295-1.063-.068-1.88-.42-2.433-1.045-.503-.57-.766-1.367-.766-2.32 0-.115.004-.232.012-.352zm3.155 4.201c2.292.148 3.758-1.254 3.92-3.748l.001-.455c0-.534-.146-1.36-.146-1.36l-1.744-.03.154.346c.13.29.202.892.17 1.399-.082 1.258-.997 2.017-2.331 1.932-.68-.044-1.261-.305-1.64-.734-.34-.386-.5-.888-.464-1.453.024-.382.093-.84.418-1.334l.208-.316L4.496 44l-.077.163a4.692 4.692 0 0 0-.406 1.613c-.081 1.24.223 2.285.874 3.024.631.715 1.588 1.133 2.767 1.208zM6.037 37.504c.516-1.845 2.05-2.654 4-2.11 1.971.549 2.875 2.036 2.359 3.881-.254.902-.72 1.548-1.386 1.922-.714.4-1.63.462-2.65.177-1.599-.444-2.473-1.475-2.473-2.843 0-.324.048-.668.15-1.027zm2.193 4.338c1.146.32 2.19.243 3.018-.222.773-.432 1.332-1.198 1.616-2.214.589-2.102-.47-3.86-2.697-4.48-2.205-.614-4.008.347-4.6 2.447-.597 2.135.424 3.846 2.663 4.47zm11.923-17.419l-5.622-1.135-.297.307s3.684 2.92 4.029 3.195l-.516.644-4.978-3.954c.198-.25.676-.848.806-1.01l5.624 1.152.266-.325-4.007-3.185c.157-.196.36-.453.518-.647.34.27 4.637 3.684 4.98 3.955-.2.248-.673.84-.803 1.003zm-4.256-5.641l-1.123 1.407 3.437 2.73c-1.313-.269-4.83-.985-4.83-.985l-1.298 1.623 5.74 4.56 1.126-1.405-3.442-2.731 4.842.977 1.29-1.616-5.742-4.56zm40.39-7.341l-1.945-5.38-.417-.095-.647 5.093-.822-.106.807-6.296 1.285.164c.096.265 1.93 5.391 1.93 5.391l.417.057.652-5.067.822.104-.806 6.297-1.276-.162zm2.628-6.555l-1.79-.227-.556 4.346-1.664-4.628-2.064-.263-.93 7.259 1.788.23.556-4.351 1.675 4.633 2.055.26.93-7.26zm-24.57 9.079L32.07 8.038l.829-.317 2.065 5.376 2.483-.95.213.552-3.315 1.266zm3.383-2.444l-2.484.948-2.064-5.376-1.739.666 2.624 6.833 4.224-1.613-.56-1.458zM7.078 37.794c.333-1.192 1.594-1.297 2.572-1.025.45.126 1.774.593 1.774 1.744 0 .146-.021.303-.068.471-.119.425-.352.737-.69.928-.471.264-1.17.295-1.92.086-.978-.273-2.002-1.013-1.669-2.204zm1.537 2.672c.885.247 1.698.2 2.289-.131.456-.256.765-.667.92-1.22.43-1.534-.774-2.46-2.042-2.813-1.29-.36-2.771-.077-3.174 1.361-.402 1.438.718 2.443 2.007 2.803zm36.06-35.66L44.93 8.5c.056.818.271 1.378.658 1.714.296.257.685.371 1.156.34.47-.033.838-.198 1.096-.493.288-.329.428-.803.428-1.443 0-.11-.266-4.039-.266-4.039l.884-.061s.295 4.306.295 4.397c0 .625-.156 1.119-.464 1.471-.384.44-1.035.695-1.934.757-1.738.119-2.6-.568-2.71-2.162l-.284-4.113c.258-.018.629-.044.887-.06zm2.142 6.82c1.032-.07 1.795-.38 2.267-.921.442-.506.635-1.215.573-2.107L49.338 4l-1.855.128.287 4.178c.047.673-.053 1.156-.297 1.435-.171.197-.42.303-.763.326-.342.024-.604-.047-.802-.219-.28-.244-.446-.709-.492-1.382l-.288-4.177-1.858.127.318 4.597c.129 1.871 1.216 2.751 3.23 2.613zm-24.877 2.31l.382.45-2.036 1.723 1.407 1.654 1.863-1.577.384.453-1.864 1.576 1.559 1.834 2.051-1.736.384.452-2.729 2.307c-.283-.331-3.835-4.51-4.118-4.842l2.717-2.294zm4.816 4.886l-1.013-1.193-2.051 1.736-.93-1.094 1.865-1.576-1.014-1.194-1.863 1.578a370.25 370.25 0 0 1-.778-.914l2.036-1.722-1.012-1.19-3.458 2.92 4.746 5.583 3.472-2.934zM8.473 31.012l.608-1.196c.411-.814.877-1.735 1.559-1.985a.636.636 0 0 1 .038-.013c.335-.11.708-.057 1.142.162.634.32.899.994.66 1.678l-.072.2.419.196.108-.18c.1-.165.335-.232.74-.213l2.519.2c-.164.322-.365.719-.454.891-.285-.03-2.115-.213-2.115-.213-.28-.028-.507-.027-.705.046-.233.086-.422.269-.597.614l-.311.61s2.176 1.099 2.54 1.28c-.117.232-.283.56-.401.79l-5.678-2.867zm6.733 1.864l-2.54-1.281.09-.176c.112-.217.205-.33.34-.38.117-.043.264-.04.48-.018l2.448.248.933-1.835-3.251-.256a2.015 2.015 0 0 0-.669.07 1.788 1.788 0 0 0-.997-1.702c-.547-.275-1.056-.34-1.514-.19-.894.293-1.418 1.328-1.88 2.241l-.828 1.628 6.546 3.307.842-1.656zm-5.15-2.599l.096-.186c.182-.36.405-.74.676-.839a.113.113 0 0 1 .016-.006c.128-.042.269-.022.433.061.455.23.479.623.086 1.396l-.093.186-1.213-.612zm1.442-1.402c-.282-.144-.553-.173-.806-.09-.446.146-.733.608-.975 1.087l-.314.618 2.08 1.052.315-.62c.189-.372.764-1.508-.3-2.047zM82.08 17.466l.913.983c.623.668 1.328 1.421 1.328 2.146l-.001.04c-.013.352-.192.682-.548 1.012-.52.482-1.247.497-1.808.036l-.164-.137-.33.324.133.164c.12.15.102.393-.057.766l-1.06 2.286-.682-.733.934-1.904c.124-.252.202-.467.202-.676 0-.248-.107-.488-.371-.772l-.465-.5-2.087 1.93-.604-.648 4.667-4.317zm-4.089 5.652l2.086-1.931.135.145c.165.178.239.304.239.448 0 .124-.054.26-.15.455l-1.08 2.205 1.402 1.507 1.368-2.95c.05-.12.15-.374.166-.652a1.797 1.797 0 0 0 1.946-.342c.45-.416.685-.87.703-1.35.035-.937-.757-1.786-1.456-2.535l-1.245-1.339-5.38 4.978 1.266 1.36zM26.118 11.097l2.952 4.947s1.941-1.151 2.286-1.357l.304.509c-.346.205-2.703 1.604-3.05 1.808l-3.255-5.454c.222-.133.54-.321.763-.453zm6.21 4.268l-.802-1.343-2.286 1.356-2.952-4.946-1.6.948 3.754 6.29 3.886-2.305zM91.9 32.009c-.402.172-5.45 2.334-5.851 2.504-.102-.236-.249-.575-.35-.812l5.85-2.505.35.813zm-6.106 3.142l6.745-2.887-.734-1.705-6.748 2.888.737 1.704zm7.488.427l1.22 4.646-.575.15-.498-1.895-5.583 1.458-.225-.856 5.584-1.46-.497-1.893.574-.15zm-.671 1.697c-.432.114-5.585 1.46-5.585 1.46l.473 1.795 5.583-1.458.498 1.894 1.517-.395-1.467-5.586-1.517.397.498 1.893zM60.956 12.478c.121-.417 1.67-5.674 1.793-6.091l.851.248-1.793 6.093-.851-.25zm3.248-6.172l-1.786-.521-2.067 7.022 1.786.523 2.067-7.024zM85.17 29.138c.619-.385.486-1.106.357-1.806-.157-.857-.32-1.743.635-2.335.453-.281.899-.373 1.327-.273.512.12 1.002.518 1.378 1.123.266.426.453.851.572 1.27-.187.089-.351.155-.557.252a3.78 3.78 0 0 0-.456-1.11c-.324-.517-.966-.956-1.715-.493-.564.35-.43 1.04-.304 1.707.17.882.346 1.794-.648 2.41-.434.269-.862.356-1.276.26-.688-.16-1.196-.78-1.502-1.271-.336-.537-.444-.855-.613-1.375l.608-.295c.06.336.233.915.465 1.29.374.6 1.107 1.029 1.729.646zm-1.315-.901a3.034 3.034 0 0 1-.423-1.422l-.02-.365-1.639.796.11.339c.188.58.302.932.684 1.543.507.816 1.132 1.33 1.805 1.487.545.127 1.099.02 1.644-.32 1.279-.791 1.042-2.018.87-2.913-.122-.638-.184-1.037.083-1.203.522-.323.877.072 1.042.336.228.367.384.796.453 1.243l.048.323 1.5-.71-.046-.19a5.31 5.31 0 0 0-.686-1.59c-.445-.715-1.041-1.19-1.68-1.34-.557-.13-1.128-.018-1.695.334-1.237.766-1.017 1.961-.856 2.835.124.68.185 1.107-.135 1.306-.397.244-.86-.172-1.06-.49zm7.578 18.117l3.677-2.549.067 1.032-3.01 1.95 3.237 1.585.056.88-3.97-2.014-2.528.161-.058-.883 2.529-.162zm-3.045-.292l.119 1.852 2.88-.183L96 50.07l-.128-2.01-2.72-1.332 2.53-1.64-.141-2.174-4.274 2.964-2.88.183zM75.78 12.364l2.872 2.094-.349.476-2.155-1.569-1.285 1.75 1.975 1.438c-.121.167-.226.312-.349.478l-1.976-1.438-1.422 1.942 2.173 1.582-.35.476-2.889-2.103 3.755-5.126zm-.76 7.908l.924-1.262-2.172-1.58.847-1.158 1.976 1.437.923-1.262-1.974-1.437c.175-.238.534-.729.71-.967l2.156 1.57.923-1.262-3.658-2.666-4.329 5.91 3.674 2.677zm7.2-1.07l.144.152c.274.296.554.637.554.925v.016c-.005.134-.072.26-.207.384-.376.345-.752.232-1.343-.403l-.143-.152c.227-.211.768-.71.995-.922zm.82 1.834c.233-.214.355-.458.365-.723.017-.467-.32-.896-.686-1.288l-.473-.509-1.709 1.582.473.509c.285.305 1.154 1.237 2.03.43zm-16.388-6.485l.76-6.669.86.41-.72 5.572.323.189.131-.132L71.77 9.95c.172.083.48.228.766.364l-4.671 4.813c-.226-.108-.988-.468-1.211-.575zm6.702-4.386l-1.697-.805-3.512 3.707.655-5.062-1.795-.853-.876 7.688 1.84.873 5.385-5.548zM46.212 37.976c-.012.308-.049.993-1.272 1.921v-7.182h1.277l.002 2.656c0 1.455-.003 2.502-.007 2.605zm-6.748 5.14l-.615-.37V32.715h1.297v10.032a76.1 76.1 0 0 1-.682.369zm-6.67-5.118c-.009-.159-.012-2.173-.012-4.56v-.723h1.273v7.08c-.789-.617-1.217-1.219-1.26-1.797zm4.024-5.283h1.297v9.59l-1.297-.78v-8.81zm-2.03 0h1.298v8.369l-1.298-.78v-7.59zm7.388 0v8.9c-.455.26-.899.51-1.297.73v-9.63h1.297zm2.031 7.682c-.405.258-.844.524-1.298.791v-8.473h1.298v7.682zm2.005-11.636l.004 3.288H32.782c.001-1.123.001-2.26.003-3.288h13.427zm.78-.761H32.004s-.01 9.768.008 10.027c.03.384.114 1.466 2.193 2.82L39.448 44l.191-.11c.033-.018 3.312-1.753 5.293-3.044 1.797-1.171 2.035-2.14 2.058-2.766.021-.312.003-10.08.003-10.08zM65.496 40.215a.084.084 0 0 0-.012.007h-5.499v.665h4.43a98.303 98.303 0 0 1-3.95 2.229l-4.825-2.901c-1.169-.762-1.791-1.508-1.846-2.216-.002-.033-.003-.147-.005-.328h1.39l-.205.66h2.447l.035-.304h2.234l.107.608h-4.825l.275.659h6.637c.014-.005.902-.659.902-.659h-2.922l2.774-.63-.262-.334h4.84c-.002.165-.003.273-.005.303-.012.344-.04 1.149-1.715 2.24zM54.224 28.76l4.334 2.185.27-.507-3.328-1.678h3.06l.886 1.384.498-.3-.693-1.084h2.462l-.678 1.045.496.304.877-1.349h3.107l-3.258 1.647.271.505 4.258-2.152h.427l.003 2.755h-4.294v.57h4.295l.001 1.413-2.328 1.058-2.862-1.78c.13-.238.205-.5.205-.774 0-.902-.755-1.636-1.683-1.636-.929 0-1.684.734-1.684 1.636 0 .178.038.35.096.516l-3.29 1.278-1.89-1.188v-.523h4.397v-.57h-4.397c0-.947 0-1.89.002-2.755h.44zm12.995 7.244l-1.646-1.024 1.646-.748v1.772zm-7.738-4.002c0-.573.48-1.039 1.07-1.039.589 0 1.068.466 1.068 1.04a.999.999 0 0 1-.117.445l-.908-.564-1.067.414a1.005 1.005 0 0 1-.046-.296zm-2.39 4.942c-.052.44-.093.782-.107.91h-1.352l.282-.91h1.176zm-1-.571l.23-.739h.923l-.088.739h-1.064zm1.644-.737l.115-.981h1.251l.172.98h-1.538zm1.637.57l.218 1.25h-2.068l.146-1.25h1.704zm.846-1.294l-.533.24c-.044-.244-.171-.972-.171-.972h-2.101l-.114.978h-1.342l-.573 1.847h-1.597c-.003-.85-.005-2.16-.005-3.604l1.11.698-.782.304.254.618 6.158-2.392 6.689 4.16.007-.01v.226h-5.362l-1.638-2.093zm1.574 2.796l-1.597.363-.426-2.433.298-.134 1.725 2.204zM67.993 28H53.002s-.008 9.768.01 10.026c.03.385.114 1.467 2.193 2.82L60.451 44s3.501-1.863 5.482-3.154c1.799-1.173 2.034-2.141 2.056-2.767.022-.304.004-10.079.004-10.079z"/></g></svg>