<svg width="22" height="62" xmlns="http://www.w3.org/2000/svg" xmlns:xlink="http://www.w3.org/1999/xlink"><defs><path id="a" d="M0 .002h21.694V27.5H0z"/><path id="c" d="M.067.002h10.847V27.5H.067z"/><path id="e" d="M0 60.537h21.694V0H0z"/></defs><g fill="none" fill-rule="evenodd"><g transform="translate(0 33.037)"><mask id="b" fill="#fff"><use xlink:href="#a"/></mask><path d="M19.087.002H2.607A2.607 2.607 0 0 0 0 2.608v10.947c0 3.431 1.521 6.686 4.154 8.887l5.557 4.646a1.77 1.77 0 0 0 2.271 0l5.558-4.646a11.585 11.585 0 0 0 4.154-8.887V2.608A2.607 2.607 0 0 0 19.087.002" fill="#BAB6B5" mask="url(#b)"/></g><g transform="translate(10.78 33.037)"><mask id="d" fill="#fff"><use xlink:href="#c"/></mask><path d="M6.76 22.442a11.585 11.585 0 0 0 4.154-8.887V2.608A2.607 2.607 0 0 0 8.307.002H.067V27.5c.403 0 .807-.137 1.135-.412l5.558-4.646z" fill="#9E9D9D" mask="url(#d)"/></g><path d="M12.569 30.342H9.125l-2.64 2.697 4.096 10.292a.287.287 0 0 0 .532 0L15.21 33.04l-2.64-2.697z" fill="#9E9D9D"/><path d="M11.113 43.331L15.21 33.04l-2.64-2.697h-1.722v13.17c.11 0 .218-.06.266-.18" fill="#BAB6B5"/><path d="M13.035 30.342H8.86a.753.753 0 0 1-.753-.753v-2.924c0-.416.337-.753.753-.753h4.175c.416 0 .753.337.753.753v2.924a.753.753 0 0 1-.753.753" fill="#63628C"/><path d="M8.86 25.912a.753.753 0 0 0-.754.753v2.127h2.088a.753.753 0 0 0 .753-.753v-2.127H8.86z" fill="#38385B"/><path d="M8.464 0h4.766a2.05 2.05 0 0 1 2.05 2.05v22.845a2.05 2.05 0 0 1-2.05 2.05H8.464a2.05 2.05 0 0 1-2.05-2.05V2.05A2.05 2.05 0 0 1 8.463 0" fill="#F59B67"/><path d="M8.464 0a2.05 2.05 0 0 0-2.05 2.05v22.045c.057.006.115.01.174.01h2.74c.931 0 1.686-.755 1.686-1.687V0h-2.55z" fill="#B95938"/><mask id="f" fill="#fff"><use xlink:href="#e"/></mask><path fill="#F8AB64" mask="url(#f)" d="M6.413 6.543h5.338v-.775H6.413z"/><path fill="#893B20" mask="url(#f)" d="M6.413 8.975h8.867V6.543H6.413z"/><path d="M3.183 43.747c-.108 2.581.147 8.756 4.823 10.756v-6.34a3.909 3.909 0 0 0-1.525-3.098l-2.312-1.78a.613.613 0 0 0-.986.462" fill="#D4D2D1" mask="url(#f)"/></g></svg>