<svg width="187" height="43" xmlns="http://www.w3.org/2000/svg"><path d="M23.583 9.645L14.95 33.89H8.635L0 9.645h6.093l5.572 18.01h.253l5.588-18.01h6.077zm1.724 24.246V9.645h5.714V33.89h-5.714zM28.18 6.204c-1.831 0-3.315-1.39-3.315-3.094 0-1.72 1.484-3.11 3.315-3.11 1.815 0 3.299 1.39 3.299 3.11 0 1.705-1.484 3.094-3.3 3.094zm6.175 27.687v-3.63l12.502-15.675v-.206H34.766V9.645H53.85v3.899L41.948 28.95v.205H54.26v4.736H34.355zm22.75 0v-3.63l12.502-15.675v-.206H57.515V9.645H76.6v3.899L64.698 28.95v.205H77.01v4.736H57.105zm38.52-10.197V9.644h5.713v24.247h-5.54v-4.31h-.253c-1.105 2.716-3.662 4.626-7.293 4.626-4.767 0-8.082-3.3-8.082-9.124V9.645h5.715v14.554c0 3.078 1.83 5.02 4.577 5.02 2.526 0 5.162-1.832 5.162-5.525zm16.34 10.686c-4.625 0-8.113-2.525-8.113-7.292 0-5.462 4.498-6.867 9.202-7.372 4.278-.458 5.999-.537 5.999-2.179v-.094c0-2.384-1.453-3.741-4.104-3.741-2.794 0-4.405 1.42-4.973 3.078l-5.335-.758c1.263-4.42 5.177-6.693 10.276-6.693 4.625 0 9.85 1.926 9.85 8.335V33.89h-5.493v-3.33h-.19c-1.042 2.036-3.315 3.82-7.119 3.82zm1.484-4.199c3.441 0 5.62-2.288 5.62-4.988v-2.857c-.742.6-3.742.979-5.241 1.184-2.557.363-4.467 1.279-4.467 3.473 0 2.1 1.704 3.188 4.088 3.188zM134.02 1.563V33.89h-5.714V1.563h5.714zm3.65 32.328V9.645h5.714V33.89h-5.714zm2.873-27.687c-1.831 0-3.315-1.39-3.315-3.094 0-1.72 1.484-3.11 3.315-3.11 1.815 0 3.299 1.39 3.299 3.11 0 1.705-1.484 3.094-3.3 3.094zm18.598 3.44v4.42h-4.783v12.534c0 2.305 1.152 2.81 2.589 2.81.71 0 1.357-.142 1.673-.221l.963 4.467c-.616.205-1.736.521-3.362.569-4.294.126-7.609-2.116-7.577-6.678v-13.48h-3.441v-4.42h3.44v-5.81h5.715v5.81h4.783zm6.112 33.292c-1.563 0-2.952-.284-3.725-.616l1.326-4.435c2.494.71 4.136.505 5.225-2.179l.49-1.31-8.793-24.751h6.061l5.588 18.31h.253l5.604-18.31 6.108.031-9.74 27.151c-1.372 3.804-3.945 6.109-8.397 6.109zm17.791-8.698c-1.926 0-3.488-1.547-3.473-3.472-.015-1.895 1.547-3.442 3.473-3.442 1.863 0 3.457 1.547 3.473 3.442-.016 1.925-1.61 3.472-3.473 3.472z" fill="#2BA4A0" fill-rule="evenodd"/></svg>