<svg width="108" height="99" viewBox="0 0 108 99" xmlns="http://www.w3.org/2000/svg"><title>B7934A4E-AFC0-4A88-8EBC-388E59615E46</title><g fill="none" fill-rule="evenodd"><path d="M30.893 77.171c-.294.064-.486.166-.575.282-.14.204-.358.613-.704 1.42-.627 1.497-2.021 4.683-2.648 6.346-.077.064-.256.103-.423.103a.582.582 0 0 1-.345-.103c-.14-.307-.332-.768-.486-1.126l-.537-1.216c-.179-.409-.345-.793-.46-.984-.116.217-.27.524-.436.882l-.588 1.24c-.192.41-.333.782-.537 1.204-.064.064-.243.103-.435.103-.141 0-.23-.04-.346-.103-.204-.538-.717-1.69-1.151-2.648l-2.086-4.517c-.345-.755-.422-.819-.844-.91l-.32-.063c-.102-.128-.09-.383.052-.447.473.025 1.01.038 1.663.038.563 0 1.061-.013 1.547-.038.103.051.154.37.026.447l-.23.039c-.23.038-.32.102-.32.191 0 .09.269.692.665 1.587l1.267 2.828c.358.793.55 1.151.703 1.458.154-.255.448-.856.653-1.318l.166-.37c.09-.206.128-.371.128-.449 0-.076-.09-.345-.14-.473l-1.229-2.7c-.294-.639-.383-.73-.87-.779l-.128-.014c-.128-.102-.102-.396.04-.447.55.025 1.048.038 1.61.038.653 0 1.14-.013 1.471-.038.155.038.142.383.052.447l-.217.051c-.154.04-.345.09-.345.18 0 .102.05.242.114.384l.384.882c.115.27.282.614.397.844.128-.268.268-.588.396-.869l.115-.256c.218-.486.371-.87.371-.947 0-.09-.05-.128-.256-.179l-.46-.09c-.09-.089-.077-.383.038-.447.371.025.832.038 1.254.038.5 0 .973-.013 1.305-.038.102.064.128.37.013.461l-.358.076c-.435.089-.525.089-.972.858a27.247 27.247 0 0 0-.794 1.496c-.115.23-.281.6-.281.666 0 .038.012.115.102.319l.601 1.292c.333.705.512 1.115.588 1.294.615-1.485 1.318-3.11 1.933-4.671.09-.217.332-.896.332-1.036 0-.129-.205-.179-.371-.23l-.281-.078c-.103-.115-.077-.383.038-.447.41.025.934.038 1.318.038.448 0 .819-.013 1.177-.038.115.064.128.345.039.447l-.385.09zM33.66 79.16c-1.164 0-1.788 1.086-1.788 2.666 0 1.154.407 3.007 1.948 3.007 1.238 0 1.72-1.21 1.72-2.742 0-1.617-.709-2.931-1.88-2.931m3.393 2.809c0 2.06-1.38 3.298-3.412 3.298-1.901 0-3.282-1.247-3.282-3.223 0-1.872 1.4-3.318 3.375-3.318 1.967 0 3.32 1.322 3.32 3.243M41.2 79.16c-1.163 0-1.787 1.086-1.787 2.666 0 1.154.407 3.007 1.948 3.007 1.239 0 1.72-1.21 1.72-2.742 0-1.617-.708-2.931-1.88-2.931m3.393 2.809c0 2.06-1.38 3.298-3.412 3.298-1.901 0-3.282-1.247-3.282-3.223 0-1.872 1.4-3.318 3.375-3.318 1.968 0 3.32 1.322 3.32 3.243M47.494 83.405c0 .52.02.86.189 1.059.17.189.445.275.785.275 1.635 0 2.193-1.456 2.193-2.742 0-1.703-.898-2.715-2.61-2.715-.254 0-.434.049-.491.123-.056.077-.066.256-.066.549v3.451zm-1.351-2.998c0-.897-.02-1.076-.455-1.125l-.18-.018c-.094-.048-.094-.322.02-.332a39.691 39.691 0 0 1 2.533-.084c.776 0 1.55.076 2.203.312 1.239.444 1.92 1.56 1.92 2.742 0 1.267-.606 2.288-1.693 2.827-.643.322-1.418.444-2.392.444-.444 0-.917-.057-1.257-.057-.454 0-.936.01-1.475.03-.076-.058-.076-.285 0-.333l.293-.047c.426-.066.483-.141.483-1.011v-3.348zM54.78 85.267c-.87 0-1.409-.245-1.608-.36-.18-.207-.302-.887-.302-1.53.066-.123.283-.133.36-.029.188.615.822 1.485 1.625 1.485.7 0 1.02-.483 1.02-.955 0-.766-.717-1.22-1.284-1.502-.681-.342-1.428-.91-1.428-1.845-.01-1.069.822-1.805 2.194-1.805.311 0 .699.037 1.077.15.123.039.208.056.322.075.076.209.17.72.17 1.353-.048.113-.284.123-.37.029-.16-.483-.566-1.173-1.247-1.173-.624 0-.964.407-.964.879 0 .435.388.832.86 1.077l.624.332c.586.311 1.333.86 1.333 1.9 0 1.163-.955 1.92-2.382 1.92M64.552 81.06c-.524 0-.538.014-.538.371v1.843c0 1.19.078 1.305.654 1.382l.409.05c.101.078.101.372 0 .45a47.515 47.515 0 0 0-3.851 0c-.103-.078-.103-.372 0-.45l.307-.037c.588-.077.652-.205.652-1.395v-4.76c0-1.189-.064-1.317-.652-1.394l-.307-.04c-.103-.075-.103-.37 0-.446a47.88 47.88 0 0 0 1.905.037c.577 0 1.216-.012 1.78-.037.102.077.102.37 0 .447l-.27.039c-.549.077-.627.205-.627 1.395v1.483c0 .372.014.385.538.385h2.66c.538 0 .538-.013.538-.385v-1.483c0-1.19-.064-1.292-.652-1.382l-.346-.052c-.101-.076-.101-.37 0-.447.704.025 1.331.037 1.946.037.626 0 1.214-.012 1.802-.037.103.077.103.37 0 .447l-.255.039c-.588.09-.665.205-.665 1.395v4.76c0 1.189.077 1.28.665 1.38l.306.052c.103.077.103.371 0 .448a45.45 45.45 0 0 0-3.735 0c-.101-.077-.101-.37 0-.448l.282-.038c.588-.077.652-.205.652-1.395v-1.843c0-.357 0-.371-.537-.371h-2.66zM74.584 79.16c-1.163 0-1.786 1.086-1.786 2.666 0 1.154.407 3.007 1.948 3.007 1.239 0 1.72-1.21 1.72-2.742 0-1.617-.71-2.931-1.882-2.931m3.395 2.809c0 2.06-1.38 3.298-3.412 3.298-1.902 0-3.282-1.247-3.282-3.223 0-1.872 1.4-3.318 3.375-3.318 1.967 0 3.319 1.322 3.319 3.243M80.878 83.547c0 .445.038.748.161.9.122.158.293.235.982.235.86 0 1.126-.03 1.684-1.126.076-.094.293-.056.359.057-.047.491-.274 1.277-.407 1.532-.5-.019-1.408-.029-2.184-.029h-1.267c-.434 0-.908.01-1.493.03-.085-.058-.104-.276-.028-.333l.358-.047c.427-.056.483-.132.483-1.011v-3.517c0-.88-.056-.965-.483-1.021l-.273-.037c-.095-.058-.095-.275.02-.332a34.816 34.816 0 0 0 2.817 0c.074.057.074.274 0 .332l-.246.037c-.426.065-.483.141-.483 1.021v3.309zM86.501 81.334c0 .265.009.283.264.283h.652c.492 0 .605-.066.7-.52l.048-.236c.065-.074.303-.074.35.01-.02.302-.03.642-.03 1.002s.01.7.03 1.003c-.047.085-.285.095-.35.009l-.048-.236c-.095-.454-.208-.53-.7-.53h-.652c-.255 0-.264.01-.264.294v1.125c0 .435.038.737.151.898.123.17.303.246.992.246.824 0 1.144-.03 1.664-1.097.076-.104.313-.066.35.047-.037.492-.265 1.258-.397 1.513-.5-.02-1.409-.03-2.184-.03H85.85c-.454 0-.918.01-1.627.03-.076-.057-.076-.284 0-.332l.444-.064c.427-.067.482-.124.482-.995v-3.526c0-.86-.055-.917-.482-1.002l-.235-.047c-.086-.056-.076-.275.017-.331.444.019.908.029 1.362.029h2.006c.604 0 1.143-.01 1.265-.03.01.152.076.833.124 1.466-.038.104-.256.123-.35.037-.104-.33-.237-.614-.36-.746-.179-.18-.463-.293-.927-.293h-.756c-.311 0-.311.02-.311.37v1.653zM9.854 93.16c0 .448.039.485.793.485.46 0 .73-.115.972-.358.218-.216.461-.626.461-1.38 0-1.153-.677-1.895-1.676-1.895-.524 0-.55.039-.55.652v2.495zm-1.753-1.626c0-1.28-.025-1.42-.562-1.496l-.346-.051c-.127-.064-.127-.384.026-.448.96-.064 1.957-.115 3.173-.115 1.087 0 2.021.166 2.507.46.742.436 1.126 1.074 1.126 1.893 0 1.14-.768 1.625-1.356 1.92-.128.064-.128.141-.064.281.845 1.714 1.368 2.674 1.983 3.199.332.268.665.346.857.358.115.064.115.256.05.333-.204.089-.613.115-1.01.115-1.177 0-1.919-.423-2.481-1.343a16.045 16.045 0 0 1-.999-1.983c-.153-.346-.358-.448-.677-.448-.448 0-.474.025-.474.281v1.574c0 1.177.077 1.266.653 1.369l.345.064c.09.063.09.371 0 .447a47.168 47.168 0 0 0-3.748 0c-.103-.076-.103-.384 0-.447l.345-.064c.576-.103.652-.192.652-1.369v-4.53z" fill="#1A1919"/><path d="M17.693 94.124c0 .265.009.284.265.284h.652c.492 0 .605-.066.7-.52l.047-.236c.066-.076.302-.076.35.009-.02.302-.029.643-.029 1.003 0 .358.01.7.028 1.002-.047.084-.283.094-.35.008l-.047-.236c-.094-.454-.207-.529-.699-.529h-.652c-.256 0-.265.009-.265.293v1.126c0 .434.037.737.151.897.123.17.303.246.993.246.822 0 1.144-.029 1.664-1.096.075-.105.312-.067.35.047-.038.491-.265 1.257-.398 1.512-.5-.019-1.408-.029-2.183-.029h-1.23c-.454 0-.916.01-1.626.03-.075-.057-.075-.285 0-.332l.445-.065c.425-.067.482-.124.482-.994v-3.526c0-.86-.057-.918-.482-1.002l-.237-.047c-.085-.057-.075-.275.02-.33.444.017.907.027 1.36.027h2.005c.605 0 1.143-.01 1.266-.028.01.152.076.832.124 1.465-.038.104-.256.123-.35.038-.104-.332-.237-.614-.36-.747-.179-.18-.462-.294-.926-.294h-.756c-.312 0-.312.02-.312.37v1.654zM23.088 98.057c-.87 0-1.408-.246-1.607-.36-.18-.208-.303-.888-.303-1.53.067-.124.284-.134.36-.03.189.615.823 1.486 1.626 1.486.7 0 1.02-.483 1.02-.955 0-.766-.718-1.22-1.285-1.503-.68-.342-1.427-.908-1.427-1.845-.01-1.068.822-1.805 2.193-1.805.312 0 .7.038 1.078.151.122.038.208.057.321.075.076.208.17.719.17 1.354-.047.112-.283.122-.369.027-.16-.482-.567-1.173-1.247-1.173-.624 0-.965.407-.965.88 0 .435.388.832.86 1.078l.625.33c.586.313 1.333.861 1.333 1.9 0 1.164-.955 1.92-2.383 1.92M28.267 94.124c0 .265.01.284.265.284h.653c.491 0 .604-.066.699-.52l.047-.236c.066-.076.303-.076.35.009-.018.302-.028.643-.028 1.003 0 .358.01.7.028 1.002-.047.084-.284.094-.35.008l-.047-.236c-.095-.454-.208-.529-.7-.529h-.652c-.255 0-.265.009-.265.293v1.126c0 .434.038.737.152.897.123.17.302.246.992.246.823 0 1.144-.029 1.664-1.096.076-.105.312-.067.35.047-.038.491-.264 1.257-.397 1.512-.501-.019-1.409-.029-2.184-.029h-1.229c-.454 0-.916.01-1.626.03-.076-.057-.076-.285 0-.332l.444-.065c.426-.067.482-.124.482-.994v-3.526c0-.86-.056-.918-.482-1.002l-.236-.047c-.085-.057-.075-.275.02-.33.443.017.906.027 1.36.027h2.005c.604 0 1.143-.01 1.266-.028.01.152.076.832.124 1.465-.039.104-.256.123-.35.038-.104-.332-.237-.614-.36-.747-.18-.18-.463-.294-.927-.294h-.756c-.312 0-.312.02-.312.37v1.654zM34.552 95.269c.217 0 .265-.03.189-.275l-.246-.766a19.59 19.59 0 0 0-.387-1.116c-.076.218-.265.729-.407 1.163l-.236.71c-.086.255-.038.284.198.284h.889zm-1.078.5c-.227 0-.255.01-.312.19l-.369 1.096a1.096 1.096 0 0 0-.066.34c0 .057.123.113.388.161l.283.047c.057.067.076.285-.019.332-.33-.02-.671-.02-1.068-.03-.321 0-.539.03-.974.03-.103-.057-.094-.255-.028-.332l.255-.028c.227-.029.416-.104.577-.473.16-.377.34-.831.595-1.513l.86-2.306c.218-.596.379-.927.35-1.2.454-.105.804-.568.823-.568.123 0 .18.047.218.188.075.275.189.625.424 1.297l1.287 3.705c.198.567.283.784.633.841l.36.057c.056.047.075.275-.01.332-.454-.02-.964-.03-1.456-.03-.472 0-.841.01-1.276.03-.104-.057-.123-.255-.02-.332l.303-.047c.218-.038.256-.104.256-.161 0-.066-.067-.293-.18-.643l-.255-.813c-.047-.152-.123-.17-.454-.17h-1.125zM39.9 94.399c0 .33.029.36.587.36.34 0 .538-.087.718-.266.161-.161.34-.464.34-1.022 0-.85-.5-1.398-1.238-1.398-.388 0-.406.028-.406.481V94.4zm-1.295-1.2c0-.947-.019-1.051-.415-1.107l-.256-.039c-.095-.047-.095-.283.019-.33.71-.047 1.447-.085 2.345-.085.803 0 1.494.122 1.853.34.548.321.832.794.832 1.4 0 .84-.567 1.2-1.002 1.418-.095.047-.095.104-.048.208.624 1.267 1.012 1.976 1.465 2.363.247.198.492.255.634.265.086.047.086.189.038.245-.151.066-.454.086-.747.086-.87 0-1.418-.313-1.834-.993-.302-.5-.52-.964-.738-1.465-.113-.256-.264-.332-.5-.332-.332 0-.35.02-.35.208v1.163c0 .87.056.937.482 1.012l.255.047c.066.047.066.274 0 .332a34.048 34.048 0 0 0-2.77 0c-.076-.058-.076-.285 0-.332l.256-.047c.424-.075.481-.142.481-1.012V93.2zM49.985 91.76c0 .171.029.928.114 1.476-.038.113-.294.151-.36.066-.255-.88-.86-1.352-1.777-1.352-1.05 0-2.175.898-2.175 2.78 0 1.88 1.088 2.892 2.222 2.892 1.144 0 1.674-.822 1.93-1.465.075-.076.301-.047.358.066-.066.7-.226 1.267-.359 1.484-.51.141-1.182.35-1.92.35-.926 0-1.871-.216-2.542-.719-.681-.52-1.201-1.304-1.201-2.476 0-1.155.491-1.966 1.144-2.506.671-.558 1.635-.841 2.619-.841.964 0 1.664.226 1.947.246M53.33 94.91c-.388 0-.398.008-.398.273v1.361c0 .88.057.965.482 1.021l.302.038c.076.057.076.275 0 .332a34.232 34.232 0 0 0-2.845 0c-.076-.057-.076-.275 0-.332l.227-.028c.435-.057.482-.151.482-1.03v-3.517c0-.88-.047-.975-.482-1.032l-.227-.027c-.076-.057-.076-.275 0-.33.463.018.955.028 1.409.028.425 0 .898-.01 1.314-.029.075.056.075.274 0 .33l-.199.028c-.406.057-.463.152-.463 1.032v1.096c0 .275.01.284.397.284h1.967c.396 0 .396-.01.396-.284v-1.096c0-.88-.047-.955-.481-1.022l-.256-.037c-.076-.057-.076-.275 0-.33.52.018.983.028 1.437.028.463 0 .898-.01 1.333-.029.075.056.075.274 0 .33l-.189.028c-.435.067-.492.152-.492 1.032v3.516c0 .88.057.945.492 1.021l.227.038c.076.057.076.275 0 .332a32.806 32.806 0 0 0-2.76 0c-.076-.057-.076-.275 0-.332l.208-.028c.434-.057.481-.151.481-1.03v-1.362c0-.265 0-.274-.396-.274h-1.967zM69.651 89.59c0 .23.038 1.253.153 1.996-.051.153-.397.205-.486.09-.346-1.19-1.164-1.83-2.405-1.83-1.42 0-2.942 1.215-2.942 3.761 0 2.546 1.47 3.915 3.006 3.915 1.547 0 2.265-1.112 2.61-1.983.102-.102.41-.064.486.09-.09.946-.307 1.714-.486 2.009-.69.191-1.6.473-2.598.473-1.253 0-2.533-.294-3.441-.973-.92-.703-1.624-1.765-1.624-3.352 0-1.56.665-2.661 1.548-3.39.908-.755 2.213-1.14 3.544-1.14 1.304 0 2.25.31 2.635.334M72.782 94.124c0 .265.008.284.263.284h.653c.492 0 .605-.066.7-.52l.048-.236c.065-.076.303-.076.35.009-.02.302-.03.643-.03 1.003 0 .358.01.7.03 1.002-.047.084-.285.094-.35.008l-.048-.236c-.095-.454-.208-.529-.7-.529h-.653c-.255 0-.263.009-.263.293v1.126c0 .434.037.737.151.897.122.17.303.246.992.246.824 0 1.144-.029 1.664-1.096.075-.105.313-.067.35.047-.037.491-.265 1.257-.397 1.512-.5-.019-1.409-.029-2.184-.029H72.13c-.455 0-.918.01-1.627.03-.076-.057-.076-.285 0-.332l.444-.065c.427-.067.482-.124.482-.994v-3.526c0-.86-.055-.918-.482-1.002l-.236-.047c-.086-.057-.076-.275.018-.33.444.017.908.027 1.361.027h2.006c.605 0 1.143-.01 1.266-.028.01.152.076.832.123 1.465-.037.104-.255.123-.35.038-.104-.332-.236-.614-.359-.747-.179-.18-.464-.294-.927-.294h-.757c-.31 0-.31.02-.31.37v1.654zM82.214 96.298c0 .615 0 1.21.018 1.523-.066.114-.33.218-.558.218-.009 0-.32-.483-.766-1.031l-2.182-2.704c-.549-.671-.86-1.069-1.031-1.21-.048.095-.048.256-.048.605v1.834c0 .765.038 1.475.141 1.73.087.199.303.265.549.302l.265.038c.076.076.057.275 0 .332-.51-.02-.888-.03-1.267-.03-.35 0-.7.01-1.059.03-.057-.057-.075-.256 0-.332l.161-.028c.256-.047.444-.113.52-.312.105-.255.132-.965.132-1.73v-2.401c0-.52-.01-.672-.067-.804-.074-.16-.206-.275-.537-.322l-.266-.037c-.065-.076-.056-.303.039-.33.444.018.916.027 1.304.027.32 0 .596-.01.794-.028.095.425.71 1.144 1.56 2.156l.794.935c.416.49.69.823.907 1.04.04-.095.04-.255.04-.425v-1.305c0-.766-.04-1.475-.143-1.73-.085-.2-.293-.265-.549-.303l-.255-.037c-.075-.076-.057-.275 0-.33.511.018.88.027 1.267.027.35 0 .691-.01 1.059-.028.056.056.076.255 0 .33l-.17.028c-.247.04-.426.114-.51.313-.104.255-.142.964-.142 1.73v2.26zM85.623 92.375c0-.227 0-.275-.226-.275h-.587c-.69 0-.89.38-1.172 1.069-.114.057-.293.038-.35-.085.199-.652.246-1.239.312-1.607a.219.219 0 0 1 .133-.047c.047 0 .094.009.131.038.048.16.077.198.796.198h3.516c.623 0 .766-.01.85-.208a.236.236 0 0 1 .124-.028c.056 0 .123.038.142.066-.095.322-.162 1.088-.142 1.626-.049.085-.302.104-.35.03-.16-.606-.293-1.052-1.002-1.052h-.567c-.228 0-.256.03-.256.275v4.169c0 .88.057.955.482 1.012l.379.047c.065.057.065.275 0 .332-.615-.02-1.088-.03-1.513-.03-.453 0-.946.01-1.608.03-.075-.057-.075-.275 0-.332l.426-.047c.426-.047.482-.132.482-1.012v-4.169zM91.833 94.124c0 .265.008.284.263.284h.653c.492 0 .605-.066.7-.52l.048-.236c.065-.076.302-.076.35.009-.02.302-.028.643-.028 1.003 0 .358.008.7.027 1.002-.047.084-.284.094-.35.008l-.047-.236c-.095-.454-.208-.529-.7-.529h-.653c-.255 0-.263.009-.263.293v1.126c0 .434.037.737.151.897.122.17.303.246.992.246.823 0 1.145-.029 1.664-1.096.077-.105.313-.067.35.047-.037.491-.264 1.257-.397 1.512-.5-.019-1.409-.029-2.184-.029H91.18c-.454 0-.917.01-1.626.03-.076-.057-.076-.285 0-.332l.444-.065c.426-.067.482-.124.482-.994v-3.526c0-.86-.056-.918-.482-1.002l-.236-.047c-.086-.057-.076-.275.018-.33.444.017.908.027 1.361.027h2.006c.605 0 1.143-.01 1.267-.028.01.152.075.832.122 1.465-.037.104-.255.123-.35.038-.104-.332-.236-.614-.359-.747-.179-.18-.464-.294-.927-.294h-.757c-.31 0-.31.02-.31.37v1.654zM97.474 94.399c0 .33.029.36.587.36.34 0 .538-.087.717-.266.162-.161.341-.464.341-1.022 0-.85-.502-1.398-1.239-1.398-.387 0-.406.028-.406.481V94.4zm-1.295-1.2c0-.947-.02-1.051-.416-1.107l-.256-.039c-.094-.047-.094-.283.02-.33.71-.047 1.446-.085 2.344-.085.803 0 1.494.122 1.854.34.548.321.831.794.831 1.4 0 .84-.568 1.2-1.002 1.418-.094.047-.094.104-.047.208.623 1.267 1.012 1.976 1.466 2.363.245.198.49.255.632.265.087.047.087.189.038.245-.152.066-.454.086-.747.086-.868 0-1.418-.313-1.833-.993-.302-.5-.52-.964-.739-1.465-.112-.256-.263-.332-.5-.332-.33 0-.35.02-.35.208v1.163c0 .87.057.937.483 1.012l.255.047c.066.047.066.274 0 .332a34.134 34.134 0 0 0-2.77 0c-.076-.058-.076-.285 0-.332l.254-.047c.426-.075.483-.142.483-1.012V93.2z" fill="#1A1919"/><path d="M36.32 22.939c.527.597.91 1.152 1.053 1.636 1.238.56 1.421 1.4 1.421 1.4s.675-2.319.86-2.375c-1.484-.533.072.064-1.855-.832-.654-2.035-1.122-3.5-1.479-4.54-.301-.87-.523-1.429-.702-1.761-.383.185-.323.185-.79.33.237.873.62 2.091 1.11 3.907-1.14-.34-1.838-1.75-2.491-2.489-1.127.44-.766.36-1.807.47.967.882 3.286 2.674 4.68 4.254M81.746 37.919c-4.439-3.045-5.15-3.443-7.91-4.936-.285-1.168 0-1.566.797-2.917-.527 0-.484-1.223-.584-1.324-1.522 2.732-4.58 5.891-7.141 7.157.141-3.386.327-7.37.484-10.741-.413 0-.428.17-1.011.1-.185 4.01-.497 7.127-1.494 11.167-2.191 3.002-1.963 3.613-4.98 6.16-2.346 1.978-3.214 2.362-6.444 1.566-3.699-.911-6.032-3.757-7.098-7.299.213-2.76.796-3.599 1.536-6.786-.427-.413-.114-.185-1.053-.797-.213 1.451-.584 3.102-1.223 4.51-1.224-.299-2.191-3.158-2.647-4.083-.511-.37-.455-.54-1.152-.47.156 1.096.383 2.49 1.152 3.813.669.669.883.968 1.267 1.636.555 1.082.967 2.376.853 3.713-1.679-.797-1.735-.74-3.7-2.589 0 .98-.524 1.38-.524 2.376 3.385 1.038 6.728 5.022 9.445 7.569 1.153 1.08.827 1.593 1.182 3.557.028 3.67.013 6.572-.043 10.384-.271 3.06-.797 3.301-2.503 4.312-6.218 3.712-7.91 4.082-14.058 4.595-1.735.14-3.294.32-5.94.562-.086.014-.13.129-.13.27v.043c0 .185.073.37.186.37 2.219.056 3.807.063 5.884.05 2.094 0 4.169-.044 6.332-.1 4.196-.115 7.938-1.922 12.121-2.035 4.325-.128 8.892 2.162 13.387 2.248 6.132.114 6.29.114 12.334-.03.158 0-.099-.611-.241-.625-4.795-.81-11.025-.398-15.593-1.835-.2-.057.868-.426 1.082-.456 2.332-.342 3.187-.298 6.772-.342.156 0 .028-.383-.1-.425-5.364-1.621-11.353-2.59-12.776-6.887-.17-5.591-.245-5.502-.217-10.14 0 0 0-.444.8-2.487.799-2.042 11.808-12.567 13.573-12.567 3.641.584 3.672 1.28 7.782 3.926.555.811 1.578.967 1.622.143v-.114c0-.071-.015-.157-.03-.242" fill="#79332F"/><path d="M42.039 12.809a.631.631 0 0 0 .214.157c.413.113.498-1.167.34-1.451-.084.057-.213.127-.34.212-.328.229-.64.598-.214 1.082M34.059 9.906c.057.03.099.03.156.044.2 0 .341-.228.185-.499-.057.043-.128.071-.185.114-.228.114-.37.228-.156.341M31.484 8.74c-.043.071-.1.143-.157.213-.2.242-.427.484-.583.74.114 0 .327.043.583.085.54.1 1.28.242 1.537.285.626 0 .241.114.426-.797-.54-.326-.54-.526-1.806-.526M31.327 5.454c-.256.156-.47.284-.583.37.028.327-.057.696-.015 1.01a9.5 9.5 0 0 0 .598-.157c1.038-.298 1.992-.669 2.888-.768 1.038-.128 2.02.1 3.016 1.224-.256 1.323-.911 2.261.668 3.285h.1c1.28-.07 3.216-1.25 4.254-2.39.214-.227.384-.455.513-.668.468-.185.98-.342 1.507-.498 1.522-.455 3.186-.854 4.58-1.336-.34-.442-.852-.47-.924-.912-.057-.455-.128-1.294.142-1.949.926-.925 1.764-1.18 2.718-1.238.768-.057 1.608.015 2.632-.042.028-.256.114-.753.157-1.01-.257-.1-1.522-.256-1.765-.37-.341.014-.684.028-1.024.057-2.22.128-4.439.427-6.516.81-.683.143-1.366.271-2.02.427-1.536.342-2.959.74-4.253 1.14a36.12 36.12 0 0 0-3.785 1.379c-.954.426-1.665.81-2.048 1.123-.285.171-.584.357-.84.513M43.504 9.152c-.184 1.14-.184 1.779-.427 2.916.315.03.2.5.684.442l.512-.114.284-.057c1.11-.596.853-.612.91-.74 0-.782-.497-1.763-1.194-2.204a1.399 1.399 0 0 0-.769-.243" fill="#02592F"/><path d="M50.789 2.508c-1.238.215-1.224 1.295-1.152 2.803.441-.086.824-.327 1.152-.655.57-.582.953-1.436 1.167-2.148-.484-.056-.867-.056-1.167 0M53.734 3.391c.284.142.526-.128.34-.455-.368-.015-.625.298-.34.455M12.463 16.636c-.528.242-.485.768-.285.753a.692.692 0 0 0 .285-.085c.326-.156.682-.482.213-.753l-.213.085M26.547 6.222c.042.014.1.029.142.029.214.014.342-.214.184-.484-.057.042-.127.07-.184.114-.214.113-.37.227-.142.34M14.113 15.939c0 .141 1.522-.712 1.949-.669.796-.455 1.693-1.223 2.204-1.65a1.54 1.54 0 0 0 .157-.128.776.776 0 0 0-.157-.327c-.199-.285-.483-.384-.483-.585-1.907.5-2.674 1.097-4.14 2.036-.143 1.366-.455 1.295.47 1.323M18.166 11.343h.1c.3.043.228.4.825.3a1.2 1.2 0 0 1 .385-.214c.214-.1.427-.185.398-.242.526-.526.442-.583.54-1.222-.326.085-.64.183-.938.283-.399.114-.782.242-1.21.356-.013.014-.042.014-.07.028.142.242-.185.456-.03.71M18.125 12.496c.057.028.1.028.142.043.214 0 .342-.23.199-.498-.071.043-.129.07-.2.114-.213.114-.369.227-.141.341M19.19 13.336a.767.767 0 0 0 .286-.086c.171-.113.242-.342.313-.711-.114.071-.228.128-.313.17-.285.156-.385.242-.285.627M95.645 15c.256.327.512.526.484.313.114-.47-.186-.854-.484-1.08-.284-.216-.57-.272-.497-.116.07.271.284.627.497.882M80.423 6.236c.255.17.512.214.47-.071-.129-.341-.3-.54-.47-.626-.284-.185-.555-.029-.442.228.1.185.271.355.442.469M76.966 4.97c.256.185.726.342 1.166.455.697.17 1.353.213 1.252-.07-.34-.328-.811-.513-1.252-.613-.782-.156-1.465-.014-1.166.228M73.793 5.838c.27 0 .456-.242.385-.441a1.054 1.054 0 0 0-.385-.086c-.398-.028-.512.256-.285.442.1.07.2.085.285.085M12.463 16.039c.242-.328.355-.684.255-1.082a.88.88 0 0 0-.255.086c-1.182.483-1.68 1.763-1.452 2.276.568-.4 1.138-.811 1.452-1.28M54.844.887c.398.27.625-.085.526-.356-.712-.27-.796.128-.526.356M83.909 7.147c.142 0 .184-.114.255-.2a.24.24 0 0 1 .172-.07c.028-.072-.058-.157-.172-.229-.127-.099-.299-.212-.255-.299-1.21-.511-1.338-.61-2.49-.525.028.156.17.768.213.952.555.129 1.707.214 2.277.37M71.816 3.433c.327.129.498-.17.412-.413a1.12 1.12 0 0 0-.412-.098c-.328.014-.313.284-.113.454.042.015.07.042.113.057M63.52 2.21c.187.129.329.114.43.03a.348.348 0 0 0 .085-.385c-.03-.015-.058-.015-.086-.029-.627-.2-.698.17-.428.384M61.019 6.677c.269.058.412-.213.326-.441a2.29 2.29 0 0 0-.326-.085c-.413-.043-.428.255-.2.44a.343.343 0 0 0 .2.086M59.566 7.104c.157.029.243-.128.2-.27a.626.626 0 0 0-.2-.043c-.256-.029-.256.157-.128.27a.234.234 0 0 0 .128.043M69.61 3.163a24.388 24.388 0 0 1-.213-.84c-2.22-1.28-1.607-.583-3.77-.64 0 .213-.996.84-.996 1.053.982.115 2.448.213 3.443.328.555.028.966.057 1.537.1M70.963 2.808c-.713-.27-.798.342-.527.568.398.257.626-.298.527-.568M71.816 5.483c.398.1.783.128.725-.03-.2-.198-.47-.313-.725-.37-.456-.1-.868-.013-.697.142.155.101.426.2.697.258M91.476 32.542c.186.156.342.142.3-.17 0-.286-.143-.428-.3-.47-.198-.044-.384.07-.284.283.086.157.185.284.284.357M92.8 38.844c-.342-.114-.668.07-.555.312.099.2.327.356.555.456.298.113.597.113.554-.157-.127-.369-.355-.554-.554-.611M89.058 32.74c-.028.1-.058.2-.071.299h-.64c-.312-1.28-.312-1.28-1.052-2.76h-.627c-.098 1.067-.213 2.12-.312 3.187.27.014.554.043.839.072.455.042.91.085 1.365.142.057.626.143 1.265.214 1.906.1.014.184.042.284.057.043.014.085.028.142.043.17-.043.342-.072.527-.1.115-1.138.213-2.276.326-3.4H89.2c-.057.185-.1.37-.142.554M94.364 38.119c-.283.042-.57.184-.626.354-.013.043-.028.073-.013.1 0 .015 0 .015.013.03.17.327.243.767.626.682.128-.029.3-.128.526-.314.314-.725-.113-.91-.526-.852M92.8 29.966c.312-.029.626-.057.938-.071l.555-.042a8.693 8.693 0 0 1-.213-.74 3.844 3.844 0 0 1-.342-.17 5 5 0 0 0-.938-.328 50.835 50.835 0 0 0-1.324-.328c-.398-.084-.867-.199-1.422-.327-.327 1.053-.327 1.053-.213 1.579.54.072 1.08.157 1.635.23.428.055.868.126 1.324.197M89.343 30.25c-.1-.37-.2-.497-.285-.497-.114-.014-.214.17-.299.27.1.171.2.299.3.384.198.2.326.171.284-.156M92.8 37.564c.284-.044.611-.086.938-.143.214-.029.428-.056.626-.086.214-.028.428-.043.612-.056-.17-.228-.37-.5-.612-.768a23.208 23.208 0 0 0-.626-.655 7.807 7.807 0 0 0-.938-.782c-.441-.3-.869-.513-1.266-.554-.015.128-.044.24-.058.354-.184.925-.469 1.509 0 2.077.17.213.455.427.911.64.114 0 .256-.013.413-.027M10.257 18.642c.284-.17.569-.456.37-.754-.157.029-.27.1-.37.17-.356.256-.47.697-.441.755.015.028.228-.043.44-.17M98.022 29.254c-.3-.17-.556-.014-.442.243.101.17.272.34.442.455.256.185.497.213.469-.071-.129-.328-.313-.526-.469-.627" fill="#02592F"/><path d="M65.371 22.982c-1.18-.47-1.237-.87-1.422-2.035 0-.015-.014-.029-.014-.029h.014c.953.128 2.092 1.238 2.532 2.333-.142-.057-.968-.242-1.11-.27m-1.422-6.558c-.242-.37-.485-.755-.428-1.14.1-.013.256-.099.428-.212.298-.185.654-.441.839-.47.142 1.124.384 2.888.37 4.027-.356-.043-.868-.385-1.21-.413h-.013c-.143-.27-.072-.555-.215-.797.057-.029.143-.029.229-.029.157.015.341.058.47.03 0-.314-.244-.655-.47-.996m-3.983.028c-.13-.028-.257-.057-.4-.086-.74-.17-1.62-.34-2.404-.511-.313-.072-.626-.129-.895-.186 0-.64.057-.796.37-1.65.184.057.355.114.525.171.826.298 1.565.712 2.404.897.2.057.4.084.612.098-.07.712.527 1.267-.212 1.267m-2.804 2.931c-.981.029-1.92-.072-2.789-.086-.938-.014-1.764.072-2.388.555-.47-.327-.868-.612-1.196-.853-1.337-.954-1.949-1.266-4.055-1.266-1.252.81-1.934 1.222-2.461 1.393-.47.157-.797.114-1.295-.013 0-.158.414-.185.414-.328.284-.071.583-.257.88-.383.088-.03.158-.058.242-.087 1.48-1.664 2.931-3.67 5.408-2.234.554.741.582.997.867 1.124.028.015.085.029.143.044.37-.996.114-1.523-.086-2.42 1.452.442 1.893 1.252 2.717 2.789.285 0 .512-.384.81-.64.157-.113.314-.198.512-.198 1.524.796 1.765.824 2.277 1.18.128.099.27.199.47.355-.043.172.455.825.426 1.01-.299.03-.597.058-.896.058m40.86.014c-.455-.412-.91-.797-1.353-1.153-.013-.014-.028-.028-.043-.028-.028-.128 0-.186.043-.242.17-.157.669.014.584-.398-.128-.186-.342-.299-.584-.356-.298-.085-.668-.085-1.024-.056l-.569.041a3.45 3.45 0 0 1-.526.044c-.072-.085-.143-.157-.186-.228-.342-.47-.213-.612 0-.697.213-.1.54-.113.513-.342a5.175 5.175 0 0 1-.513-.057 3.786 3.786 0 0 1-.626-.085 6.384 6.384 0 0 1-.938-.214c-.555-.17-.968-.384-1.324-.669-.64-.469-1.124-1.123-1.906-1.976-.185-.072-.356-.129-.512-.186-.954-.327-1.45-.426-1.863-.54-.385-.1-.698-.227-1.21-.555-.426-1.053-.91-1.593-1.65-2.547l-.171-.042c-1.763-.427-2.532-.583-3.741-.783-.597-.085-1.295-.199-2.29-.34-.612-.101-1.338-.215-2.206-.343-.041-.014-.085-.014-.127-.027-.954-.655-1.48-.783-2.006-.683-.513.084-1.039.369-1.978.568-.242.043-.511.085-.826.115-.711-.257-1.366-.812-2.062-1.053.3-.768.897-.783 1.11-1.65-1.808-.115-2.32.198-2.917.796 0 1.067.526.952.37 1.65-.768-.299-1.95-.768-2.874-.199a1.415 1.415 0 0 0-.668-.455c-.668-.228-1.509-.086-2.077-.044-.3.115-.584.243-.853.356-.542.243-1.025.484-1.453.698-.128.056-.256.128-.369.184-.712.356-1.296.67-1.622.726 0-.213.739-.896.739-1.11.328-.213 0-.525.328-.74 0-.867.157-.852-.427-1.436-.355-.028-.71-.043-1.053-.043-.967.015-1.892.142-2.789.327-1.294.3-2.517.755-3.584 1.252-.71.327-1.366.684-1.921 1.024-.455.527-.61 1.38-.27 1.963.981.143 1.465-.355 2.191.385.129.143.27.327.426.569 1.551-.711 1.879-2.604 3.158-3.115.214-.072.442-.115.713-.115.056.74.142 1.736.297 2.362-.34-.028-.682 0-1.01.071-.938.228-1.792.84-2.816 1.58-.299-.072-.527-.214-.768-.385-.456-.298-.925-.653-1.892-.824-.07 1.436-.84 1.934-3.272 2.246-.072-.098-1.067.428-1.352.5h-.043c.015.07.03.098.043.127.1.185.328-.058 0 1.963-.014.057-.014.1-.028.157-.598.114-1.267.156-1.864.256-.042.085-.086.156-.128.228-.484.796-.626 1.266-.214 2.347h.399a1.93 1.93 0 0 1-.185.526c-.214.456-.655 1.18-1.707 2.646-1.295 2.59-2.804 3.984-1.793 6.986.768 1.08 2.106 2.021 3.5 2.32.668.141 1.366.141 2.02-.058a3.39 3.39 0 0 0 1.451-.882c2.56 0 3.713 3.073 5.065 5.136 0 .013.014.042.028.056 0 .228-.014.413-.028.598-.2 1.466-1.039 1.792 0 2.846.156.17.384.37.669.582.64 2.064.952 3.728 2.915 4.667.242.114.499.213.784.314.797 0 1.465-.101 2.005-.271 1.593-.513 2.148-1.765 2.404-3.572.058-.412.1-.867.129-1.35.74-.441 1.137-.954 1.324-1.508.212-.641.155-1.352 0-2.064-.115-.554-.285-1.123-.413-1.678.141-.114.284-.229.413-.357 1.308-1.109 2.318-2.033 2.93-3.271.355-.726.569-1.565.624-2.604-.227.057-.426.1-.624.158-1.367.326-2.22.44-2.93-.158-.5-.412-.94-1.18-1.453-2.49a38.139 38.139 0 0 1-.868-2.433c.258.17.556.485.868.882.484.613.996 1.424 1.453 2.15.384.625.724 1.18.952 1.521.725-.113 1.337-.213 1.978-.384.583-.141 1.18-.341 1.891-.625 1.352-.27 4.14-.94 1.281-2.021v-.426c2.973.113 2.604.214 3.23.426.54.64 1.023 1.31 1.465 1.978.71 1.08 1.337 2.218 1.978 3.414.284.527.583 1.082.895 1.65h.84c.142-.184.27-.37.398-.554.67-.981 1.323-2.12 2.205-2.845.47-.385 1.011-.655 1.65-.726.214.441.428.867.641 1.294.24.484.484.968.74 1.451.798.058 1.607.142 2.432.214.144.242.27.484.428.74.043-.014.098-.029.14-.043.13-.015.259-.043.386-.056.099-.541.213-1.068.313-1.594 1.28-.982 1.806-1.565 2.333-2.732.1-.228.199-.469.312-.754.413.1.413.1 1.053 1.053.128-.015.313-.1.498-.185.227-.1.456-.214.612-.227.07-.258-.071-.299 0-.541.612.014 1.208.043 1.806.07l1.324.088c.298.027.611.042.938.055.2.015.413.03.626.03.213.013.441.028.669.028.114-.854-.213-1.48-.669-2.036-.199-.227-.412-.44-.626-.654a11.692 11.692 0 0 1-.454-.441c.014-.099.241-.213.454-.341.186-.114.37-.214.385-.3.1.016.17.016.241.03.27.042.286.1.712.141h.014c.128.2.342.527.555.84.228.341.455.684.612.896.114.086.255.17.412.27.385.242.854.512 1.353.812 1.579.953 3.457 2.19 3.898 3.328-.414.03-.157-.199-.585-.157-.312.514-1.32.57-1.264 1.993 1.408-.043 2.973-.129 4.38-.157 2.333 1.694 2.647 2.49 3.287 2.59-1.907-4.724-5.847-9.66-9.716-13.103" fill="#02592F"/><path d="M94.92 26.48c-.186.086-.37.186-.556.271-.17.085-.342.17-.497.256-.014.085-.072.17-.129.27-.198.3-.511.655-.554.896.185-.043.37-.014.554.03.214.056.427.17.626.227 0 0 .014 0 .03.014.156.014.426-.028.682-.043.184-.014.37-.028.484-.014-.1-.754-.1-.84-.484-1.593-.043-.1-.086-.199-.157-.314M96.669 28.615c-.255-.157-.469-.071-.355.184.086.172.227.314.355.398.227.143.428.143.385-.155a1.138 1.138 0 0 0-.385-.427M54.373 17.916c-.212.113-.355.228-.141.342.056.014.099.028.141.028.214.014.342-.212.2-.483-.071.042-.127.07-.2.113M25.295 14.601c.057.029.1.044.156.044.2 0 .327-.229.185-.484-.072.028-.128.07-.185.1-.227.127-.37.226-.156.34M25.821 13.036c0 1.068.114.911.868.84.029 0 .042 0 .07-.015.058-.17.03-.469.1-.639-.056-.016-.113-.016-.17-.03-.299-.055-.556-.113-.868-.156M30.8 28.9c.1.014.3.1.527.17.242.1.498.2.611.213-.1-.668-.056-1.28-.61-1.408-.073-.014-.158-.014-.242-.014-.044.242-.357.654-.386.895.115.1-.014.043.1.143M38 52.06a2.887 2.887 0 0 1-.144.044c-1.179.326-.398.995 0 .995.356 0-.284-.399.143-.456.057 0 .114 0 .199.014.755.043.84-.81-.199-.596M26.433 27.918c.057.455.128.853.198 1.309.03 0 .044.013.058.013.385.144.682.328 1.095.47.427.03 1.068.171 1.494.213.028-.426 0-.782.057-1.21-.312-.298-.37-.467-2.646-.752l-.256-.043" fill="#02592F"/><path d="M38 32.783c-.3.014-.64.057-.997.1-.725-.726-1.707-1.196-2.788-1.494a12.207 12.207 0 0 0-2.888-.37 13.543 13.543 0 0 0-3.316.328c-.511.256-.91.611-1.322.967-.398.34-.783.683-1.238.91a2.624 2.624 0 0 1-.754.242c-.099-.37-.882-.712-.996-1.067-.525-.072-.498.129-1.024.071-.3-2.888-1.124-1.778-2.546.156-.199 0-.455-.199-.655-.213h-.029c-.738-1.223-.554-2.105.029-2.816.81-.968 2.419-1.58 3.484-2.19 0-.144.286-.514.286-.642.142 0 .327.229.484.229.455.683.74.966 1.721 1.194.029 0 .057.015.1.015.056-.371 0-.584-.1-.897-.113-.298-.3-.696-.497-1.436.141-.157.312-.342.497-.513.37-.384.797-.797 1.238-1.224 1.678-1.65 3.57-3.586 3.2-4.71a9.817 9.817 0 0 1 1.438-.34c.796-.156 1.65-.27 2.332-.498-.042-.512-.34-1.537-.739-2.077-.854.114-.383.797-1.01.91.1-.427-.327-.427.427-1.379.399 0 .755.085 1.878.825.057.042.113.085.185.127 1.991.029 2.191-1.607.854-3.343a31.99 31.99 0 0 1-1.039-.526c-1.053-.554-1.025-.783-1.409-2.59-1.807.726-.683 2.077-1.48 2.277-.198-.057-.74-1.281-1.166-1.394-.967.028-1.679.085-2.376.199-.27 2.219-.74 3.357-1.095 4.182-.299.697-.513 1.167-.412 1.864-.157.015-.541-.242-.826-.412-.113-.057-.213-.114-.285-.128-.839-.427-.64-.1-3.286-.427 0-.142.17-.512.17-.654.5-.513 1.039-1.04 1.58-1.495.142-.128 1.21-.497 1.351-.64.512-.484.399-.982.47-1.28.029-.142.1-.242.299-.27.527-.072.711.497.91-.044.015-.028.015-.042.03-.056.283-.797.398-1.337 1.051-1.408.427-.043.584-.186.611-.384-.184-.086-.412-.654-1.08-.712 0-.043-.285.215-.583.498-.256.228-.498.47-.583.555-.085.1-.385.312-.512.412a.65.65 0 0 1-.143.072c-.412.142-1.422.27-.839-1.322.313.738.612.795.84.71.155-.071.255-.228.269-.242.328-.342.656-.612.968-.796.655-.399 1.238-.47 1.538-.2.44.399 1.15.924 1.421 1.266.147.09.4.016.392.002.215-.044.334-.187.546-.215.057-.186.13-.371.215-.54-.499-.171-1.011-.357-1.494-.527-.071-.498-.911-.413-.968-.91-.612-.1-.455-.783-1.038-.896-.114-.356.654-.214.554-.57 1.266-.1.825.014 1.893.327.383-1.593-.057-2.005 1.55-2.603a.03.03 0 0 0 .029.028c.114.071.583-.07.84-.682-.371-.171-.543-.157-.84-.086-.157.043-.328.099-.569.157-2.846.81-2.419 2.219-4.012 2.418h-.057c-.441.071-.868.156-1.238.284-.313.1-.583.243-.826.427-.735-.113-1.328.35.036.607-.09.175-.376.931-.32.716-.142.071-.596.3-.824.057-.086.356-.03-1.365-.584-.995-.256.184-.185.882-.213 1.052-.428.1-.825.57-1.523 1.138-.157.412.242.584.285.67.383.796-.597.383-.583.596-.242.1-.924.67-1.18.783-.243.1 1.066.64 2.76.327.056-1.138.383-2.533.511-2.561.939-.625 1.337-.284 1.295-.227-.043.071-.598.697-.74.768-.313.128.014 2.049-.2 2.12-.213.057-1.28.569-1.45.597-.157.028-1.294.129-1.48.157-.299.27-.626.526-.94.769-.398.312-.796.596-1.208.867-.598.384-1.224.726-1.893.967-1.708.157-2.959 1.224-3.911 2.206-.485.498-.897.982-1.253 1.308-.356.043-.669.086-.953.129-1.48.198-2.234.568-3.955 3.13-2.588 2.205-3.144 2.749-5.718 4.981.027.243-.313.485-.271.741.968.256-.056.654.242.91.3.256.982-.398 1.124-.34-.398.596-1.068 1.208-1.238 1.521-.184.299-.213.612-.156 1.465.3 0 1.423-1.578 1.65-1.166.227.412-1.337 2.376-.868 2.219.612-.625 1.196-1.678 1.75-2.645.556-.953.428-1.14.897-1.338.682-.27.539-.074 2.588.223.071-.525.028-.853.114-.853.1 0 .442-.028.669 0 .07.47.043.54.028.882.796.882 1.922 2.347 3.144 3.6.712.74 1.466 1.394 2.206 1.821.482.27.952.456 1.422.512.284-.583-.3-1.678-1.095-1.993.1-.07.213-.155.312-.211 1.067.853 1.792 1.35 2.533 2.304.953-.129 1.807-.384 2.632-.627.412-.128.81-.255 1.209-.355 1.523-.399 2.96-.512 4.538.611.81.085.711-.013 1.437-.227.214-.071.512-.142.939-.227-.228 1.778-.626 2.916-.939 4.069-.113.397-.213.782-.285 1.194.1.114.186.215.285.313.512.598.882 1.067 1.238 1.438.711.74 1.38 1.067 3.215 1.208 1.72 1.707.314 6.957 1.11 9.817.114.141.213.27.313.37.526.611.923.825 2.448 2.461.155-.029.297-.056.44-.072.939-.142 1.707-.27 1.963-1.309-.427-.114-.924-.114-1.878-.853 0-2.717 1.652-3.856 3.3-5.918.172-.64.3-1.28.4-1.92.156-.911.284-1.823.54-2.732.74-.953 2.29-1.636 3.03-2.377 0-2.29.143-3.4.683-5.121.113-.384.257-.782.413-1.237a16.734 16.734 0 0 1-.413-.128c-1.395-.427-2.19-.854-4.254-.726M84.164 35.471c.428.214.869.4 1.281.583.213.03.583-.098.797-.041-.129-1.082-1.026-2.092-2.078-2.733-.683-.411-1.422-.668-2.048-.668-.242 1.394.825 2.233 2.048 2.86M84.164 32.641c.172.014.328.043.484.085V31.66a2.043 2.043 0 0 1-.484-.199c-.697-.4-1.11-1.152-2.005-1.28.34 1.366.611 1.409 1.864 2.432.042.014.098.014.141.03M87.608 36.639a14.44 14.44 0 0 1-.101-.74c-.113-.057-.212-.1-.312-.157-.114-.057-.214-.099-.313-.156-.043.27-.072.554-.1.839.1.113.2.214.312.327.03-.013.073-.013.1-.027.13-.03.27-.058.414-.086M75.927 31.673c-.34-.113-.654.071-.555.328.115.184.328.356.555.44.3.129.598.115.57-.156-.142-.355-.357-.54-.57-.612M63.238 36.254c-.328.128-.612.314-1.28.74.098.982.212 1.964.313 2.974.383-.057.696-.129.967-.2 1.72-.497 1.323-1.536.938-3.84-.44.141-.712.212-.938.326M90.307 42.584c-.501-1.833-1.29-2.382-2.197-4.444-.758.995-1.735 1.484-1.735 1.484s-1.732-.667-.814-1.733c-.344-.444-1.172-.537-1.172-.537s-1.066.378-1.541.804c-1.077-.723-1.15-.39-2.328.397-.997.666-3.403 1.528-3.983 2.474-.026-.13-.948 6.702.417 5.684 1.933-1.46 5.157-1.594 6.44.185.748-.055.716.11 1.153-.023.1 1.408 1.232 2.24 1.232 2.24s1.445.148 2.492-.277c.474-.726 3.608-3.596 2.253-5.969a4.206 4.206 0 0 0-.217-.285M87.646 50.091c-.468.275-.863.225-1.182-.148-.187.56-.385 1.03-.197 1.164.447.314.512.263.91.09.618-.369.562-.653.469-1.106M94.005 48.167l-.199-.344c-.52.485-2.52 3.874-.61 2.62.94-.618 1.48-1.294 1.103-2.454-.13-.079-.228-.02-.294.178M94.775 46.38s.258 1.276-.529 1.022c-.107-.497-.321-.84-.69-1.276.628.009 1.22.253 1.22.253" fill="#02592F"/></g></svg>