<!-- Generated by IcoMoon.io -->
<svg version="1.1" xmlns="http://www.w3.org/2000/svg" width="32" height="32" viewBox="0 0 32 32">
<title>search</title>
<path fill="#000" d="M26.667 16c0 5.891-4.776 10.667-10.667 10.667s-10.667-4.776-10.667-10.667c0-5.891 4.776-10.667 10.667-10.667s10.667 4.776 10.667 10.667z"></path>
<path fill="#c68e54" d="M26.667 16c0 5.891-4.776 10.667-10.667 10.667s-10.667-4.776-10.667-10.667c0-5.891 4.776-10.667 10.667-10.667s10.667 4.776 10.667 10.667z"></path>
<path fill="#fff" d="M17.636 16.997l3.698 3.698-0.639 0.639-3.698-3.698c-0.666 0.528-1.508 0.843-2.424 0.843-2.157 0-3.906-1.749-3.906-3.906s1.749-3.906 3.906-3.906c2.157 0 3.906 1.749 3.906 3.906 0 0.916-0.315 1.758-0.843 2.424v0zM14.573 17.575c1.658 0 3.003-1.344 3.003-3.003s-1.344-3.003-3.003-3.003c-1.658 0-3.003 1.344-3.003 3.003s1.344 3.003 3.003 3.003z"></path>
</svg>
